<mxfile host="app.diagrams.net" modified="2023-06-15T08:55:18.669Z" agent="Mozilla/5.0 (Windows NT 10.0; Win64; x64; rv:109.0) Gecko/20100101 Firefox/112.0" etag="Nz1PH0owBjZEnwMCqzM0" version="21.3.8" type="github">
  <diagram name="第 1 页" id="aai3xAZbCaCTB3OI-ncz">
    <mxGraphModel dx="1185" dy="632" grid="1" gridSize="10" guides="1" tooltips="1" connect="1" arrows="1" fold="1" page="1" pageScale="1" pageWidth="827" pageHeight="1169" math="0" shadow="0">
      <root>
        <mxCell id="0" />
        <mxCell id="1" parent="0" />
        <mxCell id="GMlgrWjvP8i6Y5yi2moV-10" style="edgeStyle=orthogonalEdgeStyle;rounded=0;orthogonalLoop=1;jettySize=auto;html=1;" edge="1" parent="1" source="GMlgrWjvP8i6Y5yi2moV-1" target="GMlgrWjvP8i6Y5yi2moV-2">
          <mxGeometry relative="1" as="geometry" />
        </mxCell>
        <mxCell id="GMlgrWjvP8i6Y5yi2moV-1" value="" style="ellipse;fillColor=strokeColor;html=1;" vertex="1" parent="1">
          <mxGeometry x="202.5" y="10.000000000000114" width="30" height="30" as="geometry" />
        </mxCell>
        <mxCell id="GMlgrWjvP8i6Y5yi2moV-6" style="edgeStyle=orthogonalEdgeStyle;rounded=0;orthogonalLoop=1;jettySize=auto;html=1;" edge="1" parent="1" source="GMlgrWjvP8i6Y5yi2moV-2" target="GMlgrWjvP8i6Y5yi2moV-5">
          <mxGeometry relative="1" as="geometry" />
        </mxCell>
        <mxCell id="GMlgrWjvP8i6Y5yi2moV-2" value="拉取待审核请求" style="html=1;align=center;verticalAlign=top;rounded=1;absoluteArcSize=1;arcSize=10;dashed=0;whiteSpace=wrap;" vertex="1" parent="1">
          <mxGeometry x="170" y="80" width="95" height="40" as="geometry" />
        </mxCell>
        <mxCell id="GMlgrWjvP8i6Y5yi2moV-14" style="edgeStyle=orthogonalEdgeStyle;rounded=0;orthogonalLoop=1;jettySize=auto;html=1;" edge="1" parent="1" source="GMlgrWjvP8i6Y5yi2moV-4" target="GMlgrWjvP8i6Y5yi2moV-13">
          <mxGeometry relative="1" as="geometry" />
        </mxCell>
        <mxCell id="GMlgrWjvP8i6Y5yi2moV-4" value="查看用户" style="html=1;align=center;verticalAlign=top;rounded=1;absoluteArcSize=1;arcSize=10;dashed=0;whiteSpace=wrap;" vertex="1" parent="1">
          <mxGeometry x="177.5" y="240.0000000000001" width="80" height="40" as="geometry" />
        </mxCell>
        <mxCell id="GMlgrWjvP8i6Y5yi2moV-8" style="edgeStyle=orthogonalEdgeStyle;rounded=0;orthogonalLoop=1;jettySize=auto;html=1;" edge="1" parent="1" source="GMlgrWjvP8i6Y5yi2moV-5" target="GMlgrWjvP8i6Y5yi2moV-7">
          <mxGeometry relative="1" as="geometry" />
        </mxCell>
        <mxCell id="GMlgrWjvP8i6Y5yi2moV-11" value="用户申请权限" style="edgeLabel;html=1;align=center;verticalAlign=middle;resizable=0;points=[];" vertex="1" connectable="0" parent="GMlgrWjvP8i6Y5yi2moV-8">
          <mxGeometry x="0.1584" y="-2" relative="1" as="geometry">
            <mxPoint x="-5" y="-12" as="offset" />
          </mxGeometry>
        </mxCell>
        <mxCell id="GMlgrWjvP8i6Y5yi2moV-9" value="用户修改与添加档案" style="edgeStyle=orthogonalEdgeStyle;rounded=0;orthogonalLoop=1;jettySize=auto;html=1;" edge="1" parent="1" source="GMlgrWjvP8i6Y5yi2moV-5" target="GMlgrWjvP8i6Y5yi2moV-4">
          <mxGeometry relative="1" as="geometry" />
        </mxCell>
        <mxCell id="GMlgrWjvP8i6Y5yi2moV-5" value="" style="rhombus;" vertex="1" parent="1">
          <mxGeometry x="197.5" y="160" width="40" height="40" as="geometry" />
        </mxCell>
        <mxCell id="GMlgrWjvP8i6Y5yi2moV-15" style="edgeStyle=orthogonalEdgeStyle;rounded=0;orthogonalLoop=1;jettySize=auto;html=1;" edge="1" parent="1" source="GMlgrWjvP8i6Y5yi2moV-7" target="GMlgrWjvP8i6Y5yi2moV-12">
          <mxGeometry relative="1" as="geometry" />
        </mxCell>
        <mxCell id="GMlgrWjvP8i6Y5yi2moV-7" value="下载用户资质文件" style="html=1;align=center;verticalAlign=top;rounded=1;absoluteArcSize=1;arcSize=10;dashed=0;whiteSpace=wrap;" vertex="1" parent="1">
          <mxGeometry x="320" y="160.0000000000001" width="80" height="40" as="geometry" />
        </mxCell>
        <mxCell id="GMlgrWjvP8i6Y5yi2moV-12" value="审核资质文件" style="html=1;align=center;verticalAlign=top;rounded=1;absoluteArcSize=1;arcSize=10;dashed=0;whiteSpace=wrap;" vertex="1" parent="1">
          <mxGeometry x="320" y="240.0000000000001" width="80" height="40" as="geometry" />
        </mxCell>
        <mxCell id="GMlgrWjvP8i6Y5yi2moV-18" style="edgeStyle=orthogonalEdgeStyle;rounded=0;orthogonalLoop=1;jettySize=auto;html=1;" edge="1" parent="1" source="GMlgrWjvP8i6Y5yi2moV-13" target="GMlgrWjvP8i6Y5yi2moV-17">
          <mxGeometry relative="1" as="geometry" />
        </mxCell>
        <mxCell id="GMlgrWjvP8i6Y5yi2moV-13" value="查看待审核档案" style="html=1;align=center;verticalAlign=top;rounded=1;absoluteArcSize=1;arcSize=10;dashed=0;whiteSpace=wrap;" vertex="1" parent="1">
          <mxGeometry x="178" y="320.0000000000001" width="80" height="40" as="geometry" />
        </mxCell>
        <mxCell id="GMlgrWjvP8i6Y5yi2moV-21" style="edgeStyle=orthogonalEdgeStyle;rounded=0;orthogonalLoop=1;jettySize=auto;html=1;fontFamily=Helvetica;fontSize=12;fontColor=default;" edge="1" parent="1" source="GMlgrWjvP8i6Y5yi2moV-17" target="GMlgrWjvP8i6Y5yi2moV-20">
          <mxGeometry relative="1" as="geometry" />
        </mxCell>
        <mxCell id="GMlgrWjvP8i6Y5yi2moV-17" value="审核档案" style="html=1;align=center;verticalAlign=top;rounded=1;absoluteArcSize=1;arcSize=10;dashed=0;whiteSpace=wrap;" vertex="1" parent="1">
          <mxGeometry x="178" y="400.0000000000001" width="80" height="40" as="geometry" />
        </mxCell>
        <mxCell id="GMlgrWjvP8i6Y5yi2moV-25" style="edgeStyle=orthogonalEdgeStyle;rounded=0;orthogonalLoop=1;jettySize=auto;html=1;fontFamily=Helvetica;fontSize=12;fontColor=default;" edge="1" parent="1" source="GMlgrWjvP8i6Y5yi2moV-20" target="GMlgrWjvP8i6Y5yi2moV-23">
          <mxGeometry relative="1" as="geometry" />
        </mxCell>
        <mxCell id="GMlgrWjvP8i6Y5yi2moV-26" style="edgeStyle=orthogonalEdgeStyle;rounded=0;orthogonalLoop=1;jettySize=auto;html=1;fontFamily=Helvetica;fontSize=12;fontColor=default;" edge="1" parent="1" source="GMlgrWjvP8i6Y5yi2moV-20" target="GMlgrWjvP8i6Y5yi2moV-24">
          <mxGeometry relative="1" as="geometry" />
        </mxCell>
        <mxCell id="GMlgrWjvP8i6Y5yi2moV-20" value="" style="rhombus;" vertex="1" parent="1">
          <mxGeometry x="196.5" y="480" width="42" height="40" as="geometry" />
        </mxCell>
        <mxCell id="GMlgrWjvP8i6Y5yi2moV-23" value="档案更新" style="html=1;align=center;verticalAlign=top;rounded=1;absoluteArcSize=1;arcSize=10;dashed=0;whiteSpace=wrap;strokeColor=default;fontFamily=Helvetica;fontSize=12;fontColor=default;fillColor=default;" vertex="1" parent="1">
          <mxGeometry x="178" y="560.0000000000001" width="80" height="40" as="geometry" />
        </mxCell>
        <mxCell id="GMlgrWjvP8i6Y5yi2moV-30" style="edgeStyle=orthogonalEdgeStyle;rounded=0;orthogonalLoop=1;jettySize=auto;html=1;fontFamily=Helvetica;fontSize=12;fontColor=default;" edge="1" parent="1" source="GMlgrWjvP8i6Y5yi2moV-24" target="GMlgrWjvP8i6Y5yi2moV-28">
          <mxGeometry relative="1" as="geometry" />
        </mxCell>
        <mxCell id="GMlgrWjvP8i6Y5yi2moV-24" value="填写打回原因和建议" style="html=1;align=center;verticalAlign=top;rounded=1;absoluteArcSize=1;arcSize=10;dashed=0;whiteSpace=wrap;strokeColor=default;fontFamily=Helvetica;fontSize=12;fontColor=default;fillColor=default;" vertex="1" parent="1">
          <mxGeometry x="60" y="480.0000000000001" width="80" height="40" as="geometry" />
        </mxCell>
        <mxCell id="GMlgrWjvP8i6Y5yi2moV-28" value="档案打回" style="html=1;align=center;verticalAlign=top;rounded=1;absoluteArcSize=1;arcSize=10;dashed=0;whiteSpace=wrap;strokeColor=default;fontFamily=Helvetica;fontSize=12;fontColor=default;fillColor=default;" vertex="1" parent="1">
          <mxGeometry x="60" y="560.0000000000001" width="80" height="40" as="geometry" />
        </mxCell>
        <mxCell id="GMlgrWjvP8i6Y5yi2moV-29" value="增加审核记录" style="html=1;align=center;verticalAlign=top;rounded=1;absoluteArcSize=1;arcSize=10;dashed=0;whiteSpace=wrap;strokeColor=default;fontFamily=Helvetica;fontSize=12;fontColor=default;fillColor=default;" vertex="1" parent="1">
          <mxGeometry x="177.5" y="720.0000000000001" width="80" height="40" as="geometry" />
        </mxCell>
      </root>
    </mxGraphModel>
  </diagram>
</mxfile>
